<?xml version="1.0" encoding="UTF-8" standalone="no"?>
<!DOCTYPE svg PUBLIC "-//W3C//DTD SVG 1.1//EN"
 "http://www.w3.org/Graphics/SVG/1.1/DTD/svg11.dtd">
<!-- Generated by graphviz version 2.30.1 (20130221.2233)
 -->
<!-- Title: G Pages: 1 -->
<svg width="490pt" height="847pt"
 viewBox="0.00 0.00 490.00 847.00" xmlns="http://www.w3.org/2000/svg" xmlns:xlink="http://www.w3.org/1999/xlink">
<g id="graph0" class="graph" transform="scale(1 1) rotate(0) translate(4 843)">
<title>G</title>
<polygon fill="white" stroke="white" points="-4,5 -4,-843 487,-843 487,5 -4,5"/>
<g id="clust1" class="cluster"><title>cluster_Orno</title>
<path fill="none" stroke="gray" d="M43,-206C43,-206 462,-206 462,-206 468,-206 474,-212 474,-218 474,-218 474,-819 474,-819 474,-825 468,-831 462,-831 462,-831 43,-831 43,-831 37,-831 31,-825 31,-819 31,-819 31,-218 31,-218 31,-212 37,-206 43,-206"/>
<text text-anchor="middle" x="252.5" y="-816" font-family="Times,serif" font-size="11.00" fill="gray">Orno</text>
</g>
<g id="clust2" class="cluster"><title>cluster_Orno\Db</title>
<path fill="none" stroke="gray" d="M53,-349C53,-349 454,-349 454,-349 460,-349 466,-355 466,-361 466,-361 466,-790 466,-790 466,-796 460,-802 454,-802 454,-802 53,-802 53,-802 47,-802 41,-796 41,-790 41,-790 41,-361 41,-361 41,-355 47,-349 53,-349"/>
<text text-anchor="middle" x="253.5" y="-787" font-family="Times,serif" font-size="11.00" fill="gray">Db</text>
</g>
<g id="clust3" class="cluster"><title>cluster_Orno\Db\Driver</title>
<path fill="none" stroke="gray" d="M61,-646C61,-646 399,-646 399,-646 405,-646 411,-652 411,-658 411,-658 411,-761 411,-761 411,-767 405,-773 399,-773 399,-773 61,-773 61,-773 55,-773 49,-767 49,-761 49,-761 49,-658 49,-658 49,-652 55,-646 61,-646"/>
<text text-anchor="middle" x="230" y="-758" font-family="Times,serif" font-size="11.00" fill="gray">Driver</text>
</g>
<g id="clust4" class="cluster"><title>cluster_Orno\Db\Exception</title>
<path fill="none" stroke="gray" d="M306,-403C306,-403 446,-403 446,-403 452,-403 458,-409 458,-415 458,-415 458,-626 458,-626 458,-632 452,-638 446,-638 446,-638 306,-638 306,-638 300,-638 294,-632 294,-626 294,-626 294,-415 294,-415 294,-409 300,-403 306,-403"/>
<text text-anchor="middle" x="376" y="-623" font-family="Times,serif" font-size="11.00" fill="gray">Exception</text>
</g>
<g id="clust7" class="cluster"><title>cluster_Orno\Di</title>
<path fill="none" stroke="gray" d="M51,-214C51,-214 413,-214 413,-214 419,-214 425,-220 425,-226 425,-226 425,-329 425,-329 425,-335 419,-341 413,-341 413,-341 51,-341 51,-341 45,-341 39,-335 39,-329 39,-329 39,-226 39,-226 39,-220 45,-214 51,-214"/>
<text text-anchor="middle" x="232" y="-326" font-family="Times,serif" font-size="11.00" fill="gray">Di</text>
</g>
<!-- \\Orno\\Db\\Driver\\DriverInterface -->
<g id="node1" class="node"><title>\\Orno\\Db\\Driver\\DriverInterface</title>
<g id="a_node1"><a xlink:href="db.src.Orno.Db.Driver.DriverInterface.html" xlink:title="DriverInterface" target="_parent">
<polygon fill="none" stroke="black" points="172.516,-717 57.4839,-717 57.4839,-681 172.516,-681 172.516,-717"/>
<text text-anchor="middle" x="115" y="-694.6" font-family="Courier,monospace" font-size="11.00">DriverInterface</text>
</a>
</g>
</g>
<!-- \\Orno\\Db\\Driver\\Oci8 -->
<g id="node2" class="node"><title>\\Orno\\Db\\Driver\\Oci8</title>
<g id="a_node2"><a xlink:href="db.src.Orno.Db.Driver.Oci8.html" xlink:title="Oci8" target="_parent">
<polygon fill="none" stroke="black" points="403,-744 349,-744 349,-708 403,-708 403,-744"/>
<text text-anchor="middle" x="376" y="-721.6" font-family="Courier,monospace" font-size="11.00">Oci8</text>
</a>
</g>
</g>
<!-- \\Orno\\Db\\Driver\\Oci8&#45;&gt;\\Orno\\Db\\Driver\\DriverInterface -->
<g id="edge5" class="edge"><title>\\Orno\\Db\\Driver\\Oci8&#45;&gt;\\Orno\\Db\\Driver\\DriverInterface</title>
<path fill="none" stroke="black" stroke-dasharray="1,5" d="M348.74,-723.263C310.139,-719.238 236.809,-711.594 182.736,-705.957"/>
<polygon fill="none" stroke="black" points="182.844,-702.449 172.535,-704.894 182.119,-709.412 182.844,-702.449"/>
</g>
<!-- \\Orno\\Db\\Driver\\Pdo -->
<g id="node3" class="node"><title>\\Orno\\Db\\Driver\\Pdo</title>
<g id="a_node3"><a xlink:href="db.src.Orno.Db.Driver.Pdo.html" xlink:title="Pdo" target="_parent">
<polygon fill="none" stroke="black" points="403,-690 349,-690 349,-654 403,-654 403,-690"/>
<text text-anchor="middle" x="376" y="-667.6" font-family="Courier,monospace" font-size="11.00">Pdo</text>
</a>
</g>
</g>
<!-- \\Orno\\Db\\Driver\\Pdo&#45;&gt;\\Orno\\Db\\Driver\\DriverInterface -->
<g id="edge6" class="edge"><title>\\Orno\\Db\\Driver\\Pdo&#45;&gt;\\Orno\\Db\\Driver\\DriverInterface</title>
<path fill="none" stroke="black" stroke-dasharray="1,5" d="M348.74,-674.737C310.139,-678.762 236.809,-686.406 182.736,-692.043"/>
<polygon fill="none" stroke="black" points="182.119,-688.588 172.535,-693.106 182.844,-695.551 182.119,-688.588"/>
</g>
<!-- \\Orno\\Db\\Exception\\BindingException -->
<g id="node4" class="node"><title>\\Orno\\Db\\Exception\\BindingException</title>
<g id="a_node4"><a xlink:href="db.src.Orno.Db.Exception.BindingException.html" xlink:title="BindingException" target="_parent">
<polygon fill="none" stroke="black" points="436.618,-609 315.382,-609 315.382,-573 436.618,-573 436.618,-609"/>
<text text-anchor="middle" x="376" y="-586.6" font-family="Courier,monospace" font-size="11.00">BindingException</text>
</a>
</g>
</g>
<!-- \\Exception -->
<g id="node12" class="node"><title>\\Exception</title>
<ellipse fill="none" stroke="black" cx="115" cy="-180" rx="52.7417" ry="18"/>
<text text-anchor="middle" x="115" y="-174.4" font-family="Times,serif" font-size="14.00" fill="gray">\Exception</text>
</g>
<!-- \\Orno\\Db\\Exception\\BindingException&#45;&gt;\\Exception -->
<g id="edge1" class="edge"><title>\\Orno\\Db\\Exception\\BindingException&#45;&gt;\\Exception</title>
<path fill="none" stroke="black" d="M315.098,-579.384C307.116,-575.607 299.727,-570.61 294,-564 189.304,-443.163 338.534,-327.402 230,-210 216.513,-195.411 196.862,-187.573 177.661,-183.463"/>
<polygon fill="none" stroke="black" points="178.163,-179.997 167.696,-181.638 176.901,-186.883 178.163,-179.997"/>
</g>
<!-- \\Orno\\Db\\Exception\\ConnectionException -->
<g id="node5" class="node"><title>\\Orno\\Db\\Exception\\ConnectionException</title>
<g id="a_node5"><a xlink:href="db.src.Orno.Db.Exception.ConnectionException.html" xlink:title="ConnectionException" target="_parent">
<polygon fill="none" stroke="black" points="446.921,-501 305.079,-501 305.079,-465 446.921,-465 446.921,-501"/>
<text text-anchor="middle" x="376" y="-478.6" font-family="Courier,monospace" font-size="11.00">ConnectionException</text>
</a>
</g>
</g>
<!-- \\RuntimeException -->
<g id="node13" class="node"><title>\\RuntimeException</title>
<ellipse fill="none" stroke="black" cx="115" cy="-126" rx="86.2651" ry="18"/>
<text text-anchor="middle" x="115" y="-120.4" font-family="Times,serif" font-size="14.00" fill="gray">\RuntimeException</text>
</g>
<!-- \\Orno\\Db\\Exception\\ConnectionException&#45;&gt;\\RuntimeException -->
<g id="edge2" class="edge"><title>\\Orno\\Db\\Exception\\ConnectionException&#45;&gt;\\RuntimeException</title>
<path fill="none" stroke="black" d="M305.105,-465.538C301.02,-462.807 297.257,-459.65 294,-456 202.357,-353.308 326.13,-251.505 230,-153 222.915,-145.74 214.264,-140.284 204.925,-136.205"/>
<polygon fill="none" stroke="black" points="205.981,-132.862 195.39,-132.568 203.487,-139.402 205.981,-132.862"/>
</g>
<!-- \\Orno\\Db\\Exception\\NoResourceException -->
<g id="node6" class="node"><title>\\Orno\\Db\\Exception\\NoResourceException</title>
<g id="a_node6"><a xlink:href="db.src.Orno.Db.Exception.NoResourceException.html" xlink:title="NoResourceException" target="_parent">
<polygon fill="none" stroke="black" points="446.921,-447 305.079,-447 305.079,-411 446.921,-411 446.921,-447"/>
<text text-anchor="middle" x="376" y="-424.6" font-family="Courier,monospace" font-size="11.00">NoResourceException</text>
</a>
</g>
</g>
<!-- \\BadMethodCallException -->
<g id="node14" class="node"><title>\\BadMethodCallException</title>
<ellipse fill="none" stroke="black" cx="115" cy="-72" rx="114.622" ry="18"/>
<text text-anchor="middle" x="115" y="-66.4" font-family="Times,serif" font-size="14.00" fill="gray">\BadMethodCallException</text>
</g>
<!-- \\Orno\\Db\\Exception\\NoResourceException&#45;&gt;\\BadMethodCallException -->
<g id="edge3" class="edge"><title>\\Orno\\Db\\Exception\\NoResourceException&#45;&gt;\\BadMethodCallException</title>
<path fill="none" stroke="black" d="M305.194,-415.973C301.089,-413.466 297.296,-410.501 294,-407 198.164,-305.201 327.485,-199.221 230,-99 225.73,-94.6102 220.887,-90.8794 215.666,-87.7135"/>
<polygon fill="none" stroke="black" points="217.033,-84.4771 206.556,-82.9021 213.764,-90.667 217.033,-84.4771"/>
</g>
<!-- \\Orno\\Db\\Exception\\UnsupportedException -->
<g id="node7" class="node"><title>\\Orno\\Db\\Exception\\UnsupportedException</title>
<g id="a_node7"><a xlink:href="db.src.Orno.Db.Exception.UnsupportedException.html" xlink:title="UnsupportedException" target="_parent">
<polygon fill="none" stroke="black" points="450.021,-555 301.979,-555 301.979,-519 450.021,-519 450.021,-555"/>
<text text-anchor="middle" x="376" y="-532.6" font-family="Courier,monospace" font-size="11.00">UnsupportedException</text>
</a>
</g>
</g>
<!-- \\Orno\\Db\\Exception\\UnsupportedException&#45;&gt;\\Exception -->
<g id="edge4" class="edge"><title>\\Orno\\Db\\Exception\\UnsupportedException&#45;&gt;\\Exception</title>
<path fill="none" stroke="black" d="M304.007,-518.776C300.346,-516.224 296.964,-513.315 294,-510 203.122,-408.373 324.104,-308.648 230,-210 216.347,-195.687 196.753,-187.906 177.651,-183.764"/>
<polygon fill="none" stroke="black" points="178.213,-180.309 167.74,-181.915 176.929,-187.19 178.213,-180.309"/>
</g>
<!-- \\Orno\\Db\\Query -->
<g id="node8" class="node"><title>\\Orno\\Db\\Query</title>
<g id="a_node8"><a xlink:href="db.src.Orno.Db.Query.html" xlink:title="Query" target="_parent">
<polygon fill="none" stroke="black" points="403,-393 349,-393 349,-357 403,-357 403,-393"/>
<text text-anchor="middle" x="376" y="-370.6" font-family="Courier,monospace" font-size="11.00">Query</text>
</a>
</g>
</g>
<!-- \\Orno\\Di\\Container -->
<g id="node9" class="node"><title>\\Orno\\Di\\Container</title>
<g id="a_node9"><a xlink:href="di.src.Orno.Di.Container.html" xlink:title="Container" target="_parent">
<polygon fill="none" stroke="black" points="413.911,-312 338.089,-312 338.089,-276 413.911,-276 413.911,-312"/>
<text text-anchor="middle" x="376" y="-289.6" font-family="Courier,monospace" font-size="11.00">Container</text>
</a>
</g>
</g>
<!-- \\Orno\\Di\\ContainerInterface -->
<g id="node10" class="node"><title>\\Orno\\Di\\ContainerInterface</title>
<g id="a_node10"><a xlink:href="di.src.Orno.Di.ContainerInterface.html" xlink:title="ContainerInterface" target="_parent">
<polygon fill="none" stroke="black" points="182.319,-312 47.6805,-312 47.6805,-276 182.319,-276 182.319,-312"/>
<text text-anchor="middle" x="115" y="-289.6" font-family="Courier,monospace" font-size="11.00">ContainerInterface</text>
</a>
</g>
</g>
<!-- \\Orno\\Di\\Container&#45;&gt;\\Orno\\Di\\ContainerInterface -->
<g id="edge7" class="edge"><title>\\Orno\\Di\\Container&#45;&gt;\\Orno\\Di\\ContainerInterface</title>
<path fill="none" stroke="black" stroke-dasharray="1,5" d="M338.167,-294C300.42,-294 240.616,-294 192.561,-294"/>
<polygon fill="none" stroke="black" points="192.497,-290.5 182.497,-294 192.497,-297.5 192.497,-290.5"/>
</g>
<!-- \\ArrayAccess -->
<g id="node15" class="node"><title>\\ArrayAccess</title>
<ellipse fill="none" stroke="black" cx="115" cy="-18" rx="66.044" ry="18"/>
<text text-anchor="middle" x="115" y="-12.4" font-family="Times,serif" font-size="14.00" fill="gray">\\ArrayAccess</text>
</g>
<!-- \\Orno\\Di\\Container&#45;&gt;\\ArrayAccess -->
<g id="edge8" class="edge"><title>\\Orno\\Di\\Container&#45;&gt;\\ArrayAccess</title>
<path fill="none" stroke="black" stroke-dasharray="1,5" d="M338.271,-289.45C322.74,-285.762 305.598,-279.085 294,-267 222.897,-192.915 304.335,-115.841 230,-45 219.114,-34.6252 205.006,-27.9911 190.446,-23.8022"/>
<polygon fill="none" stroke="black" points="190.878,-20.3027 180.328,-21.277 189.183,-27.0944 190.878,-20.3027"/>
</g>
<!-- \\Orno\\Di\\Definition -->
<g id="node11" class="node"><title>\\Orno\\Di\\Definition</title>
<g id="a_node11"><a xlink:href="di.src.Orno.Di.Definition.html" xlink:title="Definition" target="_parent">
<polygon fill="none" stroke="black" points="417.011,-258 334.989,-258 334.989,-222 417.011,-222 417.011,-258"/>
<text text-anchor="middle" x="376" y="-235.6" font-family="Courier,monospace" font-size="11.00">Definition</text>
</a>
</g>
</g>
</g>
</svg>
