<?xml version="1.0" encoding="UTF-8" standalone="no"?>
<!DOCTYPE svg PUBLIC "-//W3C//DTD SVG 1.1//EN"
 "http://www.w3.org/Graphics/SVG/1.1/DTD/svg11.dtd">
<!-- Generated by graphviz version 2.30.1 (20130221.2233)
 -->
<!-- Title: G Pages: 1 -->
<svg width="490pt" height="928pt"
 viewBox="0.00 0.00 490.00 928.00" xmlns="http://www.w3.org/2000/svg" xmlns:xlink="http://www.w3.org/1999/xlink">
<g id="graph0" class="graph" transform="scale(1 1) rotate(0) translate(4 924)">
<title>G</title>
<polygon fill="white" stroke="white" points="-4,5 -4,-924 487,-924 487,5 -4,5"/>
<g id="clust1" class="cluster"><title>cluster_Orno</title>
<path fill="none" stroke="gray" d="M43,-206C43,-206 462,-206 462,-206 468,-206 474,-212 474,-218 474,-218 474,-900 474,-900 474,-906 468,-912 462,-912 462,-912 43,-912 43,-912 37,-912 31,-906 31,-900 31,-900 31,-218 31,-218 31,-212 37,-206 43,-206"/>
<text text-anchor="middle" x="252.5" y="-897" font-family="Times,serif" font-size="11.00" fill="gray">Orno</text>
</g>
<g id="clust2" class="cluster"><title>cluster_Orno\Db</title>
<path fill="none" stroke="gray" d="M53,-430C53,-430 454,-430 454,-430 460,-430 466,-436 466,-442 466,-442 466,-871 466,-871 466,-877 460,-883 454,-883 454,-883 53,-883 53,-883 47,-883 41,-877 41,-871 41,-871 41,-442 41,-442 41,-436 47,-430 53,-430"/>
<text text-anchor="middle" x="253.5" y="-868" font-family="Times,serif" font-size="11.00" fill="gray">Db</text>
</g>
<g id="clust3" class="cluster"><title>cluster_Orno\Db\Driver</title>
<path fill="none" stroke="gray" d="M61,-727C61,-727 399,-727 399,-727 405,-727 411,-733 411,-739 411,-739 411,-842 411,-842 411,-848 405,-854 399,-854 399,-854 61,-854 61,-854 55,-854 49,-848 49,-842 49,-842 49,-739 49,-739 49,-733 55,-727 61,-727"/>
<text text-anchor="middle" x="230" y="-839" font-family="Times,serif" font-size="11.00" fill="gray">Driver</text>
</g>
<g id="clust4" class="cluster"><title>cluster_Orno\Db\Exception</title>
<path fill="none" stroke="gray" d="M306,-484C306,-484 446,-484 446,-484 452,-484 458,-490 458,-496 458,-496 458,-707 458,-707 458,-713 452,-719 446,-719 446,-719 306,-719 306,-719 300,-719 294,-713 294,-707 294,-707 294,-496 294,-496 294,-490 300,-484 306,-484"/>
<text text-anchor="middle" x="376" y="-704" font-family="Times,serif" font-size="11.00" fill="gray">Exception</text>
</g>
<g id="clust7" class="cluster"><title>cluster_Orno\Di</title>
<path fill="none" stroke="gray" d="M51,-295C51,-295 413,-295 413,-295 419,-295 425,-301 425,-307 425,-307 425,-410 425,-410 425,-416 419,-422 413,-422 413,-422 51,-422 51,-422 45,-422 39,-416 39,-410 39,-410 39,-307 39,-307 39,-301 45,-295 51,-295"/>
<text text-anchor="middle" x="232" y="-407" font-family="Times,serif" font-size="11.00" fill="gray">Di</text>
</g>
<g id="clust8" class="cluster"><title>cluster_Orno\Loader</title>
<path fill="none" stroke="gray" d="M339,-214C339,-214 413,-214 413,-214 419,-214 425,-220 425,-226 425,-226 425,-275 425,-275 425,-281 419,-287 413,-287 413,-287 339,-287 339,-287 333,-287 327,-281 327,-275 327,-275 327,-226 327,-226 327,-220 333,-214 339,-214"/>
<text text-anchor="middle" x="376" y="-272" font-family="Times,serif" font-size="11.00" fill="gray">Loader</text>
</g>
<!-- \\Orno\\Db\\Driver\\DriverInterface -->
<g id="node1" class="node"><title>\\Orno\\Db\\Driver\\DriverInterface</title>
<g id="a_node1"><a xlink:href="db.src.Orno.Db.Driver.DriverInterface.html" xlink:title="DriverInterface" target="_parent">
<polygon fill="none" stroke="black" points="172.516,-798 57.4839,-798 57.4839,-762 172.516,-762 172.516,-798"/>
<text text-anchor="middle" x="115" y="-775.6" font-family="Courier,monospace" font-size="11.00">DriverInterface</text>
</a>
</g>
</g>
<!-- \\Orno\\Db\\Driver\\Oci8 -->
<g id="node2" class="node"><title>\\Orno\\Db\\Driver\\Oci8</title>
<g id="a_node2"><a xlink:href="db.src.Orno.Db.Driver.Oci8.html" xlink:title="Oci8" target="_parent">
<polygon fill="none" stroke="black" points="403,-825 349,-825 349,-789 403,-789 403,-825"/>
<text text-anchor="middle" x="376" y="-802.6" font-family="Courier,monospace" font-size="11.00">Oci8</text>
</a>
</g>
</g>
<!-- \\Orno\\Db\\Driver\\Oci8&#45;&gt;\\Orno\\Db\\Driver\\DriverInterface -->
<g id="edge5" class="edge"><title>\\Orno\\Db\\Driver\\Oci8&#45;&gt;\\Orno\\Db\\Driver\\DriverInterface</title>
<path fill="none" stroke="black" stroke-dasharray="1,5" d="M348.74,-804.263C310.139,-800.238 236.809,-792.594 182.736,-786.957"/>
<polygon fill="none" stroke="black" points="182.844,-783.449 172.535,-785.894 182.119,-790.412 182.844,-783.449"/>
</g>
<!-- \\Orno\\Db\\Driver\\Pdo -->
<g id="node3" class="node"><title>\\Orno\\Db\\Driver\\Pdo</title>
<g id="a_node3"><a xlink:href="db.src.Orno.Db.Driver.Pdo.html" xlink:title="Pdo" target="_parent">
<polygon fill="none" stroke="black" points="403,-771 349,-771 349,-735 403,-735 403,-771"/>
<text text-anchor="middle" x="376" y="-748.6" font-family="Courier,monospace" font-size="11.00">Pdo</text>
</a>
</g>
</g>
<!-- \\Orno\\Db\\Driver\\Pdo&#45;&gt;\\Orno\\Db\\Driver\\DriverInterface -->
<g id="edge6" class="edge"><title>\\Orno\\Db\\Driver\\Pdo&#45;&gt;\\Orno\\Db\\Driver\\DriverInterface</title>
<path fill="none" stroke="black" stroke-dasharray="1,5" d="M348.74,-755.737C310.139,-759.762 236.809,-767.406 182.736,-773.043"/>
<polygon fill="none" stroke="black" points="182.119,-769.588 172.535,-774.106 182.844,-776.551 182.119,-769.588"/>
</g>
<!-- \\Orno\\Db\\Exception\\BindingException -->
<g id="node4" class="node"><title>\\Orno\\Db\\Exception\\BindingException</title>
<g id="a_node4"><a xlink:href="db.src.Orno.Db.Exception.BindingException.html" xlink:title="BindingException" target="_parent">
<polygon fill="none" stroke="black" points="436.618,-690 315.382,-690 315.382,-654 436.618,-654 436.618,-690"/>
<text text-anchor="middle" x="376" y="-667.6" font-family="Courier,monospace" font-size="11.00">BindingException</text>
</a>
</g>
</g>
<!-- \\Exception -->
<g id="node13" class="node"><title>\\Exception</title>
<ellipse fill="none" stroke="black" cx="115" cy="-180" rx="52.7417" ry="18"/>
<text text-anchor="middle" x="115" y="-174.4" font-family="Times,serif" font-size="14.00" fill="gray">\Exception</text>
</g>
<!-- \\Orno\\Db\\Exception\\BindingException&#45;&gt;\\Exception -->
<g id="edge1" class="edge"><title>\\Orno\\Db\\Exception\\BindingException&#45;&gt;\\Exception</title>
<path fill="none" stroke="black" d="M315.098,-660.384C307.116,-656.607 299.727,-651.61 294,-645 189.304,-524.163 305.075,-432.161 230,-291 210.454,-254.248 174.418,-222.302 148.079,-202.239"/>
<polygon fill="none" stroke="black" points="150.012,-199.315 139.901,-196.151 145.833,-204.93 150.012,-199.315"/>
</g>
<!-- \\Orno\\Db\\Exception\\ConnectionException -->
<g id="node5" class="node"><title>\\Orno\\Db\\Exception\\ConnectionException</title>
<g id="a_node5"><a xlink:href="db.src.Orno.Db.Exception.ConnectionException.html" xlink:title="ConnectionException" target="_parent">
<polygon fill="none" stroke="black" points="446.921,-582 305.079,-582 305.079,-546 446.921,-546 446.921,-582"/>
<text text-anchor="middle" x="376" y="-559.6" font-family="Courier,monospace" font-size="11.00">ConnectionException</text>
</a>
</g>
</g>
<!-- \\RuntimeException -->
<g id="node14" class="node"><title>\\RuntimeException</title>
<ellipse fill="none" stroke="black" cx="115" cy="-126" rx="86.2651" ry="18"/>
<text text-anchor="middle" x="115" y="-120.4" font-family="Times,serif" font-size="14.00" fill="gray">\RuntimeException</text>
</g>
<!-- \\Orno\\Db\\Exception\\ConnectionException&#45;&gt;\\RuntimeException -->
<g id="edge2" class="edge"><title>\\Orno\\Db\\Exception\\ConnectionException&#45;&gt;\\RuntimeException</title>
<path fill="none" stroke="black" d="M304.925,-546.696C300.882,-543.928 297.178,-540.719 294,-537 181.601,-405.461 348.152,-279.397 230,-153 223.125,-145.645 214.646,-140.125 205.441,-136.005"/>
<polygon fill="none" stroke="black" points="206.615,-132.706 196.027,-132.336 204.073,-139.228 206.615,-132.706"/>
</g>
<!-- \\Orno\\Db\\Exception\\NoResourceException -->
<g id="node6" class="node"><title>\\Orno\\Db\\Exception\\NoResourceException</title>
<g id="a_node6"><a xlink:href="db.src.Orno.Db.Exception.NoResourceException.html" xlink:title="NoResourceException" target="_parent">
<polygon fill="none" stroke="black" points="446.921,-528 305.079,-528 305.079,-492 446.921,-492 446.921,-528"/>
<text text-anchor="middle" x="376" y="-505.6" font-family="Courier,monospace" font-size="11.00">NoResourceException</text>
</a>
</g>
</g>
<!-- \\BadMethodCallException -->
<g id="node15" class="node"><title>\\BadMethodCallException</title>
<ellipse fill="none" stroke="black" cx="115" cy="-72" rx="114.622" ry="18"/>
<text text-anchor="middle" x="115" y="-66.4" font-family="Times,serif" font-size="14.00" fill="gray">\BadMethodCallException</text>
</g>
<!-- \\Orno\\Db\\Exception\\NoResourceException&#45;&gt;\\BadMethodCallException -->
<g id="edge3" class="edge"><title>\\Orno\\Db\\Exception\\NoResourceException&#45;&gt;\\BadMethodCallException</title>
<path fill="none" stroke="black" d="M305.026,-497.128C300.96,-494.584 297.222,-491.569 294,-488 176.592,-357.942 349.516,-227.124 230,-99 225.867,-94.5695 221.153,-90.8045 216.047,-87.6101"/>
<polygon fill="none" stroke="black" points="217.578,-84.4586 207.121,-82.7562 214.234,-90.6082 217.578,-84.4586"/>
</g>
<!-- \\Orno\\Db\\Exception\\UnsupportedException -->
<g id="node7" class="node"><title>\\Orno\\Db\\Exception\\UnsupportedException</title>
<g id="a_node7"><a xlink:href="db.src.Orno.Db.Exception.UnsupportedException.html" xlink:title="UnsupportedException" target="_parent">
<polygon fill="none" stroke="black" points="450.021,-636 301.979,-636 301.979,-600 450.021,-600 450.021,-636"/>
<text text-anchor="middle" x="376" y="-613.6" font-family="Courier,monospace" font-size="11.00">UnsupportedException</text>
</a>
</g>
</g>
<!-- \\Orno\\Db\\Exception\\UnsupportedException&#45;&gt;\\Exception -->
<g id="edge4" class="edge"><title>\\Orno\\Db\\Exception\\UnsupportedException&#45;&gt;\\Exception</title>
<path fill="none" stroke="black" d="M304.007,-599.776C300.346,-597.224 296.964,-594.315 294,-591 203.122,-489.373 295.894,-410.352 230,-291 209.88,-254.558 173.947,-222.558 147.788,-202.397"/>
<polygon fill="none" stroke="black" points="149.762,-199.502 139.671,-196.276 145.548,-205.091 149.762,-199.502"/>
</g>
<!-- \\Orno\\Db\\Query -->
<g id="node8" class="node"><title>\\Orno\\Db\\Query</title>
<g id="a_node8"><a xlink:href="db.src.Orno.Db.Query.html" xlink:title="Query" target="_parent">
<polygon fill="none" stroke="black" points="403,-474 349,-474 349,-438 403,-438 403,-474"/>
<text text-anchor="middle" x="376" y="-451.6" font-family="Courier,monospace" font-size="11.00">Query</text>
</a>
</g>
</g>
<!-- \\Orno\\Di\\Container -->
<g id="node9" class="node"><title>\\Orno\\Di\\Container</title>
<g id="a_node9"><a xlink:href="di.src.Orno.Di.Container.html" xlink:title="Container" target="_parent">
<polygon fill="none" stroke="black" points="413.911,-393 338.089,-393 338.089,-357 413.911,-357 413.911,-393"/>
<text text-anchor="middle" x="376" y="-370.6" font-family="Courier,monospace" font-size="11.00">Container</text>
</a>
</g>
</g>
<!-- \\Orno\\Di\\ContainerInterface -->
<g id="node10" class="node"><title>\\Orno\\Di\\ContainerInterface</title>
<g id="a_node10"><a xlink:href="di.src.Orno.Di.ContainerInterface.html" xlink:title="ContainerInterface" target="_parent">
<polygon fill="none" stroke="black" points="182.319,-393 47.6805,-393 47.6805,-357 182.319,-357 182.319,-393"/>
<text text-anchor="middle" x="115" y="-370.6" font-family="Courier,monospace" font-size="11.00">ContainerInterface</text>
</a>
</g>
</g>
<!-- \\Orno\\Di\\Container&#45;&gt;\\Orno\\Di\\ContainerInterface -->
<g id="edge7" class="edge"><title>\\Orno\\Di\\Container&#45;&gt;\\Orno\\Di\\ContainerInterface</title>
<path fill="none" stroke="black" stroke-dasharray="1,5" d="M338.167,-375C300.42,-375 240.616,-375 192.561,-375"/>
<polygon fill="none" stroke="black" points="192.497,-371.5 182.497,-375 192.497,-378.5 192.497,-371.5"/>
</g>
<!-- \\ArrayAccess -->
<g id="node16" class="node"><title>\\ArrayAccess</title>
<ellipse fill="none" stroke="black" cx="115" cy="-18" rx="66.044" ry="18"/>
<text text-anchor="middle" x="115" y="-12.4" font-family="Times,serif" font-size="14.00" fill="gray">\\ArrayAccess</text>
</g>
<!-- \\Orno\\Di\\Container&#45;&gt;\\ArrayAccess -->
<g id="edge8" class="edge"><title>\\Orno\\Di\\Container&#45;&gt;\\ArrayAccess</title>
<path fill="none" stroke="black" stroke-dasharray="1,5" d="M338.267,-370.932C322.545,-367.341 305.251,-360.608 294,-348 202.357,-245.308 326.13,-143.505 230,-45 219.338,-34.0742 205.128,-27.2342 190.367,-23.0233"/>
<polygon fill="none" stroke="black" points="191.166,-19.6157 180.619,-20.6193 189.49,-26.4121 191.166,-19.6157"/>
</g>
<!-- \\Orno\\Di\\Definition -->
<g id="node11" class="node"><title>\\Orno\\Di\\Definition</title>
<g id="a_node11"><a xlink:href="di.src.Orno.Di.Definition.html" xlink:title="Definition" target="_parent">
<polygon fill="none" stroke="black" points="417.011,-339 334.989,-339 334.989,-303 417.011,-303 417.011,-339"/>
<text text-anchor="middle" x="376" y="-316.6" font-family="Courier,monospace" font-size="11.00">Definition</text>
</a>
</g>
</g>
<!-- \\Orno\\Loader\\Autoloader -->
<g id="node12" class="node"><title>\\Orno\\Loader\\Autoloader</title>
<g id="a_node12"><a xlink:href="loader.src.Orno.Loader.Autoloader.html" xlink:title="Autoloader" target="_parent">
<polygon fill="none" stroke="black" points="417.011,-258 334.989,-258 334.989,-222 417.011,-222 417.011,-258"/>
<text text-anchor="middle" x="376" y="-235.6" font-family="Courier,monospace" font-size="11.00">Autoloader</text>
</a>
</g>
</g>
</g>
</svg>
