<?xml version="1.0" encoding="UTF-8" standalone="no"?>
<!DOCTYPE svg PUBLIC "-//W3C//DTD SVG 1.1//EN"
 "http://www.w3.org/Graphics/SVG/1.1/DTD/svg11.dtd">
<!-- Generated by graphviz version 2.30.1 (20130221.2233)
 -->
<!-- Title: G Pages: 1 -->
<svg width="766pt" height="1786pt"
 viewBox="0.00 0.00 766.00 1786.00" xmlns="http://www.w3.org/2000/svg" xmlns:xlink="http://www.w3.org/1999/xlink">
<g id="graph0" class="graph" transform="scale(1 1) rotate(0) translate(4 1782)">
<title>G</title>
<polygon fill="white" stroke="white" points="-4,5 -4,-1782 763,-1782 763,5 -4,5"/>
<g id="clust1" class="cluster"><title>cluster_Orno</title>
<path fill="none" stroke="gray" d="M252,-244C252,-244 738,-244 738,-244 744,-244 750,-250 750,-256 750,-256 750,-1758 750,-1758 750,-1764 744,-1770 738,-1770 738,-1770 252,-1770 252,-1770 246,-1770 240,-1764 240,-1758 240,-1758 240,-256 240,-256 240,-250 246,-244 252,-244"/>
<text text-anchor="middle" x="495" y="-1755" font-family="Times,serif" font-size="11.00" fill="gray">Orno</text>
</g>
<g id="clust2" class="cluster"><title>cluster_Orno\Db</title>
<path fill="none" stroke="gray" d="M263,-1207C263,-1207 695,-1207 695,-1207 701,-1207 707,-1213 707,-1219 707,-1219 707,-1729 707,-1729 707,-1735 701,-1741 695,-1741 695,-1741 263,-1741 263,-1741 257,-1741 251,-1735 251,-1729 251,-1729 251,-1219 251,-1219 251,-1213 257,-1207 263,-1207"/>
<text text-anchor="middle" x="479" y="-1726" font-family="Times,serif" font-size="11.00" fill="gray">Db</text>
</g>
<g id="clust3" class="cluster"><title>cluster_Orno\Db\Driver</title>
<path fill="none" stroke="gray" d="M271,-1585C271,-1585 640,-1585 640,-1585 646,-1585 652,-1591 652,-1597 652,-1597 652,-1700 652,-1700 652,-1706 646,-1712 640,-1712 640,-1712 271,-1712 271,-1712 265,-1712 259,-1706 259,-1700 259,-1700 259,-1597 259,-1597 259,-1591 265,-1585 271,-1585"/>
<text text-anchor="middle" x="455.5" y="-1697" font-family="Times,serif" font-size="11.00" fill="gray">Driver</text>
</g>
<g id="clust4" class="cluster"><title>cluster_Orno\Db\Exception</title>
<path fill="none" stroke="gray" d="M547,-1342C547,-1342 687,-1342 687,-1342 693,-1342 699,-1348 699,-1354 699,-1354 699,-1565 699,-1565 699,-1571 693,-1577 687,-1577 687,-1577 547,-1577 547,-1577 541,-1577 535,-1571 535,-1565 535,-1565 535,-1354 535,-1354 535,-1348 541,-1342 547,-1342"/>
<text text-anchor="middle" x="617" y="-1562" font-family="Times,serif" font-size="11.00" fill="gray">Exception</text>
</g>
<g id="clust5" class="cluster"><title>cluster_Orno\Db\Query</title>
<path fill="none" stroke="gray" d="M590,-1261C590,-1261 644,-1261 644,-1261 650,-1261 656,-1267 656,-1273 656,-1273 656,-1322 656,-1322 656,-1328 650,-1334 644,-1334 644,-1334 590,-1334 590,-1334 584,-1334 578,-1328 578,-1322 578,-1322 578,-1273 578,-1273 578,-1267 584,-1261 590,-1261"/>
<text text-anchor="middle" x="617" y="-1319" font-family="Times,serif" font-size="11.00" fill="gray">Query</text>
</g>
<g id="clust9" class="cluster"><title>cluster_Orno\Di</title>
<path fill="none" stroke="gray" d="M261,-1072C261,-1072 654,-1072 654,-1072 660,-1072 666,-1078 666,-1084 666,-1084 666,-1187 666,-1187 666,-1193 660,-1199 654,-1199 654,-1199 261,-1199 261,-1199 255,-1199 249,-1193 249,-1187 249,-1187 249,-1084 249,-1084 249,-1078 255,-1072 261,-1072"/>
<text text-anchor="middle" x="457.5" y="-1184" font-family="Times,serif" font-size="11.00" fill="gray">Di</text>
</g>
<g id="clust10" class="cluster"><title>cluster_Orno\Loader</title>
<path fill="none" stroke="gray" d="M580,-991C580,-991 654,-991 654,-991 660,-991 666,-997 666,-1003 666,-1003 666,-1052 666,-1052 666,-1058 660,-1064 654,-1064 654,-1064 580,-1064 580,-1064 574,-1064 568,-1058 568,-1052 568,-1052 568,-1003 568,-1003 568,-997 574,-991 580,-991"/>
<text text-anchor="middle" x="617" y="-1049" font-family="Times,serif" font-size="11.00" fill="gray">Loader</text>
</g>
<g id="clust11" class="cluster"><title>cluster_Orno\Mvc</title>
<path fill="none" stroke="gray" d="M260,-252C260,-252 730,-252 730,-252 736,-252 742,-258 742,-264 742,-264 742,-971 742,-971 742,-977 736,-983 730,-983 730,-983 260,-983 260,-983 254,-983 248,-977 248,-971 248,-971 248,-264 248,-264 248,-258 254,-252 260,-252"/>
<text text-anchor="middle" x="495" y="-968" font-family="Times,serif" font-size="11.00" fill="gray">Mvc</text>
</g>
<g id="clust12" class="cluster"><title>cluster_Orno\Mvc\Controller</title>
<path fill="none" stroke="gray" d="M527,-881C527,-881 707,-881 707,-881 713,-881 719,-887 719,-893 719,-893 719,-942 719,-942 719,-948 713,-954 707,-954 707,-954 527,-954 527,-954 521,-954 515,-948 515,-942 515,-942 515,-893 515,-893 515,-887 521,-881 527,-881"/>
<text text-anchor="middle" x="617" y="-939" font-family="Times,serif" font-size="11.00" fill="gray">Controller</text>
</g>
<g id="clust13" class="cluster"><title>cluster_Orno\Mvc\Route</title>
<path fill="none" stroke="gray" d="M563,-692C563,-692 671,-692 671,-692 677,-692 683,-698 683,-704 683,-704 683,-861 683,-861 683,-867 677,-873 671,-873 671,-873 563,-873 563,-873 557,-873 551,-867 551,-861 551,-861 551,-704 551,-704 551,-698 557,-692 563,-692"/>
<text text-anchor="middle" x="617" y="-858" font-family="Times,serif" font-size="11.00" fill="gray">Route</text>
</g>
<g id="clust14" class="cluster"><title>cluster_Orno\Mvc\View</title>
<path fill="none" stroke="gray" d="M268,-260C268,-260 722,-260 722,-260 728,-260 734,-266 734,-272 734,-272 734,-672 734,-672 734,-678 728,-684 722,-684 722,-684 268,-684 268,-684 262,-684 256,-678 256,-672 256,-672 256,-272 256,-272 256,-266 262,-260 268,-260"/>
<text text-anchor="middle" x="495" y="-669" font-family="Times,serif" font-size="11.00" fill="gray">View</text>
</g>
<g id="clust15" class="cluster"><title>cluster_Orno\Mvc\View\Exception</title>
<path fill="none" stroke="gray" d="M520,-268C520,-268 714,-268 714,-268 720,-268 726,-274 726,-280 726,-280 726,-491 726,-491 726,-497 720,-503 714,-503 714,-503 520,-503 520,-503 514,-503 508,-497 508,-491 508,-491 508,-280 508,-280 508,-274 514,-268 520,-268"/>
<text text-anchor="middle" x="617" y="-488" font-family="Times,serif" font-size="11.00" fill="gray">Exception</text>
</g>
<!-- \\Orno\\Db\\Driver\\DriverInterface -->
<g id="node1" class="node"><title>\\Orno\\Db\\Driver\\DriverInterface</title>
<g id="a_node1"><a xlink:href="db.src.Orno.Db.Driver.DriverInterface.html" xlink:title="DriverInterface" target="_parent">
<polygon fill="none" stroke="black" points="382.516,-1656 267.484,-1656 267.484,-1620 382.516,-1620 382.516,-1656"/>
<text text-anchor="middle" x="325" y="-1633.6" font-family="Courier,monospace" font-size="11.00">DriverInterface</text>
</a>
</g>
</g>
<!-- \\Orno\\Db\\Driver\\Oci8 -->
<g id="node2" class="node"><title>\\Orno\\Db\\Driver\\Oci8</title>
<g id="a_node2"><a xlink:href="db.src.Orno.Db.Driver.Oci8.html" xlink:title="Oci8" target="_parent">
<polygon fill="none" stroke="black" points="644,-1683 590,-1683 590,-1647 644,-1647 644,-1683"/>
<text text-anchor="middle" x="617" y="-1660.6" font-family="Courier,monospace" font-size="11.00">Oci8</text>
</a>
</g>
</g>
<!-- \\Orno\\Db\\Driver\\Oci8&#45;&gt;\\Orno\\Db\\Driver\\DriverInterface -->
<g id="edge12" class="edge"><title>\\Orno\\Db\\Driver\\Oci8&#45;&gt;\\Orno\\Db\\Driver\\DriverInterface</title>
<path fill="none" stroke="black" stroke-dasharray="1,5" d="M589.753,-1662.56C545.64,-1658.45 455.331,-1650.04 392.763,-1644.22"/>
<polygon fill="none" stroke="black" points="392.866,-1640.71 382.584,-1643.27 392.217,-1647.68 392.866,-1640.71"/>
</g>
<!-- \\Orno\\Db\\Driver\\Pdo -->
<g id="node3" class="node"><title>\\Orno\\Db\\Driver\\Pdo</title>
<g id="a_node3"><a xlink:href="db.src.Orno.Db.Driver.Pdo.html" xlink:title="Pdo" target="_parent">
<polygon fill="none" stroke="black" points="644,-1629 590,-1629 590,-1593 644,-1593 644,-1629"/>
<text text-anchor="middle" x="617" y="-1606.6" font-family="Courier,monospace" font-size="11.00">Pdo</text>
</a>
</g>
</g>
<!-- \\Orno\\Db\\Driver\\Pdo&#45;&gt;\\Orno\\Db\\Driver\\DriverInterface -->
<g id="edge13" class="edge"><title>\\Orno\\Db\\Driver\\Pdo&#45;&gt;\\Orno\\Db\\Driver\\DriverInterface</title>
<path fill="none" stroke="black" stroke-dasharray="1,5" d="M589.753,-1613.44C545.64,-1617.55 455.331,-1625.96 392.763,-1631.78"/>
<polygon fill="none" stroke="black" points="392.217,-1628.32 382.584,-1632.73 392.866,-1635.29 392.217,-1628.32"/>
</g>
<!-- \\Orno\\Db\\Exception\\BindingException -->
<g id="node4" class="node"><title>\\Orno\\Db\\Exception\\BindingException</title>
<g id="a_node4"><a xlink:href="db.src.Orno.Db.Exception.BindingException.html" xlink:title="BindingException" target="_parent">
<polygon fill="none" stroke="black" points="677.618,-1548 556.382,-1548 556.382,-1512 677.618,-1512 677.618,-1548"/>
<text text-anchor="middle" x="617" y="-1525.6" font-family="Courier,monospace" font-size="11.00">BindingException</text>
</a>
</g>
</g>
<!-- \\Exception -->
<g id="node26" class="node"><title>\\Exception</title>
<ellipse fill="none" stroke="black" cx="325" cy="-218" rx="52.7417" ry="18"/>
<text text-anchor="middle" x="325" y="-212.4" font-family="Times,serif" font-size="14.00" fill="gray">\Exception</text>
</g>
<!-- \\Orno\\Db\\Exception\\BindingException&#45;&gt;\\Exception -->
<g id="edge1" class="edge"><title>\\Orno\\Db\\Exception\\BindingException&#45;&gt;\\Exception</title>
<path fill="none" stroke="black" d="M556.27,-1528.39C538.113,-1524.78 519.851,-1517.4 508,-1503 331.687,-1288.74 613.085,-476.007 444,-256 430.414,-238.322 408.5,-228.729 387.224,-223.572"/>
<polygon fill="none" stroke="black" points="387.708,-220.097 377.199,-221.441 386.253,-226.944 387.708,-220.097"/>
</g>
<!-- \\Orno\\Db\\Exception\\ConnectionException -->
<g id="node5" class="node"><title>\\Orno\\Db\\Exception\\ConnectionException</title>
<g id="a_node5"><a xlink:href="db.src.Orno.Db.Exception.ConnectionException.html" xlink:title="ConnectionException" target="_parent">
<polygon fill="none" stroke="black" points="687.921,-1386 546.079,-1386 546.079,-1350 687.921,-1350 687.921,-1386"/>
<text text-anchor="middle" x="617" y="-1363.6" font-family="Courier,monospace" font-size="11.00">ConnectionException</text>
</a>
</g>
</g>
<!-- \\RuntimeException -->
<g id="node27" class="node"><title>\\RuntimeException</title>
<ellipse fill="none" stroke="black" cx="325" cy="-72" rx="86.2651" ry="18"/>
<text text-anchor="middle" x="325" y="-66.4" font-family="Times,serif" font-size="14.00" fill="gray">\RuntimeException</text>
</g>
<!-- \\Orno\\Db\\Exception\\ConnectionException&#45;&gt;\\RuntimeException -->
<g id="edge2" class="edge"><title>\\Orno\\Db\\Exception\\ConnectionException&#45;&gt;\\RuntimeException</title>
<path fill="none" stroke="black" d="M546.031,-1361.91C531.418,-1357.34 517.564,-1349.91 508,-1338 340.663,-1129.6 586.03,-363.405 444,-137 430.569,-115.59 407.451,-100.673 385.218,-90.5825"/>
<polygon fill="none" stroke="black" points="386.345,-87.2582 375.774,-86.5486 383.595,-93.6955 386.345,-87.2582"/>
</g>
<!-- \\Orno\\Db\\Exception\\NoResourceException -->
<g id="node6" class="node"><title>\\Orno\\Db\\Exception\\NoResourceException</title>
<g id="a_node6"><a xlink:href="db.src.Orno.Db.Exception.NoResourceException.html" xlink:title="NoResourceException" target="_parent">
<polygon fill="none" stroke="black" points="687.921,-1440 546.079,-1440 546.079,-1404 687.921,-1404 687.921,-1440"/>
<text text-anchor="middle" x="617" y="-1417.6" font-family="Courier,monospace" font-size="11.00">NoResourceException</text>
</a>
</g>
</g>
<!-- \\BadMethodCallException -->
<g id="node28" class="node"><title>\\BadMethodCallException</title>
<ellipse fill="none" stroke="black" cx="325" cy="-164" rx="114.622" ry="18"/>
<text text-anchor="middle" x="325" y="-158.4" font-family="Times,serif" font-size="14.00" fill="gray">\BadMethodCallException</text>
</g>
<!-- \\Orno\\Db\\Exception\\NoResourceException&#45;&gt;\\BadMethodCallException -->
<g id="edge3" class="edge"><title>\\Orno\\Db\\Exception\\NoResourceException&#45;&gt;\\BadMethodCallException</title>
<path fill="none" stroke="black" d="M546.156,-1417.94C531.538,-1413.77 517.651,-1406.71 508,-1395 337.562,-1188.27 616.501,-396.016 444,-191 440.013,-186.261 435.38,-182.256 430.303,-178.877"/>
<polygon fill="none" stroke="black" points="431.792,-175.697 421.375,-173.765 428.314,-181.772 431.792,-175.697"/>
</g>
<!-- \\Orno\\Db\\Exception\\UnsupportedException -->
<g id="node7" class="node"><title>\\Orno\\Db\\Exception\\UnsupportedException</title>
<g id="a_node7"><a xlink:href="db.src.Orno.Db.Exception.UnsupportedException.html" xlink:title="UnsupportedException" target="_parent">
<polygon fill="none" stroke="black" points="691.021,-1494 542.979,-1494 542.979,-1458 691.021,-1458 691.021,-1494"/>
<text text-anchor="middle" x="617" y="-1471.6" font-family="Courier,monospace" font-size="11.00">UnsupportedException</text>
</a>
</g>
</g>
<!-- \\Orno\\Db\\Exception\\UnsupportedException&#45;&gt;\\Exception -->
<g id="edge4" class="edge"><title>\\Orno\\Db\\Exception\\UnsupportedException&#45;&gt;\\Exception</title>
<path fill="none" stroke="black" d="M542.823,-1470.93C529.444,-1466.66 516.916,-1459.81 508,-1449 339.064,-1244.19 606.026,-466.318 444,-256 430.393,-238.338 408.476,-228.748 387.202,-223.589"/>
<polygon fill="none" stroke="black" points="387.688,-220.114 377.179,-221.456 386.232,-226.961 387.688,-220.114"/>
</g>
<!-- \\Orno\\Db\\Query\\Builder -->
<g id="node8" class="node"><title>\\Orno\\Db\\Query\\Builder</title>
<g id="a_node8"><a xlink:href="db.src.Orno.Db.Query.Builder.html" xlink:title="Builder" target="_parent">
<polygon fill="none" stroke="black" points="648.208,-1305 585.792,-1305 585.792,-1269 648.208,-1269 648.208,-1305"/>
<text text-anchor="middle" x="617" y="-1282.6" font-family="Courier,monospace" font-size="11.00">Builder</text>
</a>
</g>
</g>
<!-- \\Orno\\Db\\Query -->
<g id="node9" class="node"><title>\\Orno\\Db\\Query</title>
<g id="a_node9"><a xlink:href="db.src.Orno.Db.Query.html" xlink:title="Query" target="_parent">
<polygon fill="none" stroke="black" points="644,-1251 590,-1251 590,-1215 644,-1215 644,-1251"/>
<text text-anchor="middle" x="617" y="-1228.6" font-family="Courier,monospace" font-size="11.00">Query</text>
</a>
</g>
</g>
<!-- \\Orno\\Di\\Container -->
<g id="node10" class="node"><title>\\Orno\\Di\\Container</title>
<g id="a_node10"><a xlink:href="di.src.Orno.Di.Container.html" xlink:title="Container" target="_parent">
<polygon fill="none" stroke="black" points="654.911,-1170 579.089,-1170 579.089,-1134 654.911,-1134 654.911,-1170"/>
<text text-anchor="middle" x="617" y="-1147.6" font-family="Courier,monospace" font-size="11.00">Container</text>
</a>
</g>
</g>
<!-- \\Orno\\Di\\ContainerInterface -->
<g id="node11" class="node"><title>\\Orno\\Di\\ContainerInterface</title>
<g id="a_node11"><a xlink:href="di.src.Orno.Di.ContainerInterface.html" xlink:title="ContainerInterface" target="_parent">
<polygon fill="none" stroke="black" points="392.319,-1170 257.681,-1170 257.681,-1134 392.319,-1134 392.319,-1170"/>
<text text-anchor="middle" x="325" y="-1147.6" font-family="Courier,monospace" font-size="11.00">ContainerInterface</text>
</a>
</g>
</g>
<!-- \\Orno\\Di\\Container&#45;&gt;\\Orno\\Di\\ContainerInterface -->
<g id="edge14" class="edge"><title>\\Orno\\Di\\Container&#45;&gt;\\Orno\\Di\\ContainerInterface</title>
<path fill="none" stroke="black" stroke-dasharray="1,5" d="M579.271,-1152C535.059,-1152 459.645,-1152 402.578,-1152"/>
<polygon fill="none" stroke="black" points="402.508,-1148.5 392.508,-1152 402.508,-1155.5 402.508,-1148.5"/>
</g>
<!-- \\ArrayAccess -->
<g id="node30" class="node"><title>\\ArrayAccess</title>
<ellipse fill="none" stroke="black" cx="67" cy="-337" rx="66.044" ry="18"/>
<text text-anchor="middle" x="67" y="-331.4" font-family="Times,serif" font-size="14.00" fill="gray">\\ArrayAccess</text>
</g>
<!-- \\Orno\\Di\\Container&#45;&gt;\\ArrayAccess -->
<g id="edge15" class="edge"><title>\\Orno\\Di\\Container&#45;&gt;\\ArrayAccess</title>
<path fill="none" stroke="black" stroke-dasharray="1,5" d="M579.205,-1153.13C555.134,-1151.73 525.085,-1145.48 508,-1125 367.063,-956.052 604.524,-287.462 444,-137 405.412,-100.831 252.829,-112.417 206,-137 136.028,-173.732 94.5658,-263.802 77.3571,-309.478"/>
<polygon fill="none" stroke="black" points="74.0088,-308.444 73.867,-319.038 80.5843,-310.845 74.0088,-308.444"/>
</g>
<!-- \\Orno\\Di\\Definition -->
<g id="node12" class="node"><title>\\Orno\\Di\\Definition</title>
<g id="a_node12"><a xlink:href="di.src.Orno.Di.Definition.html" xlink:title="Definition" target="_parent">
<polygon fill="none" stroke="black" points="658.011,-1116 575.989,-1116 575.989,-1080 658.011,-1080 658.011,-1116"/>
<text text-anchor="middle" x="617" y="-1093.6" font-family="Courier,monospace" font-size="11.00">Definition</text>
</a>
</g>
</g>
<!-- \\Orno\\Loader\\Autoloader -->
<g id="node13" class="node"><title>\\Orno\\Loader\\Autoloader</title>
<g id="a_node13"><a xlink:href="loader.src.Orno.Loader.Autoloader.html" xlink:title="Autoloader" target="_parent">
<polygon fill="none" stroke="black" points="658.011,-1035 575.989,-1035 575.989,-999 658.011,-999 658.011,-1035"/>
<text text-anchor="middle" x="617" y="-1012.6" font-family="Courier,monospace" font-size="11.00">Autoloader</text>
</a>
</g>
</g>
<!-- \\Orno\\Mvc\\Controller\\RestfulControllerInterface -->
<g id="node14" class="node"><title>\\Orno\\Mvc\\Controller\\RestfulControllerInterface</title>
<g id="a_node14"><a xlink:href="mvc.src.Orno.Mvc.Controller.RestfulControllerInterface.html" xlink:title="RestfulControllerInterface" target="_parent">
<polygon fill="none" stroke="black" points="710.628,-925 523.372,-925 523.372,-889 710.628,-889 710.628,-925"/>
<text text-anchor="middle" x="617" y="-902.6" font-family="Courier,monospace" font-size="11.00">RestfulControllerInterface</text>
</a>
</g>
</g>
<!-- \\Orno\\Mvc\\Route\\Dispatcher -->
<g id="node15" class="node"><title>\\Orno\\Mvc\\Route\\Dispatcher</title>
<g id="a_node15"><a xlink:href="mvc.src.Orno.Mvc.Route.Dispatcher.html" xlink:title="Dispatcher" target="_parent">
<polygon fill="none" stroke="black" points="658.011,-844 575.989,-844 575.989,-808 658.011,-808 658.011,-844"/>
<text text-anchor="middle" x="617" y="-821.6" font-family="Courier,monospace" font-size="11.00">Dispatcher</text>
</a>
</g>
</g>
<!-- \\Orno\\Mvc\\Route\\Route -->
<g id="node16" class="node"><title>\\Orno\\Mvc\\Route\\Route</title>
<g id="a_node16"><a xlink:href="mvc.src.Orno.Mvc.Route.Route.html" xlink:title="Route" target="_parent">
<polygon fill="none" stroke="black" points="644,-790 590,-790 590,-754 644,-754 644,-790"/>
<text text-anchor="middle" x="617" y="-767.6" font-family="Courier,monospace" font-size="11.00">Route</text>
</a>
</g>
</g>
<!-- \\Orno\\Mvc\\Route\\RouteCollection -->
<g id="node17" class="node"><title>\\Orno\\Mvc\\Route\\RouteCollection</title>
<g id="a_node17"><a xlink:href="mvc.src.Orno.Mvc.Route.RouteCollection.html" xlink:title="RouteCollection" target="_parent">
<polygon fill="none" stroke="black" points="674.516,-736 559.484,-736 559.484,-700 674.516,-700 674.516,-736"/>
<text text-anchor="middle" x="617" y="-713.6" font-family="Courier,monospace" font-size="11.00">RouteCollection</text>
</a>
</g>
</g>
<!-- \\Orno\\Mvc\\View\\Exception\\HelperNotFoundException -->
<g id="node18" class="node"><title>\\Orno\\Mvc\\View\\Exception\\HelperNotFoundException</title>
<g id="a_node18"><a xlink:href="mvc.src.Orno.Mvc.View.Exception.HelperNotFoundException.html" xlink:title="HelperNotFoundException" target="_parent">
<polygon fill="none" stroke="black" points="700.825,-366 533.175,-366 533.175,-330 700.825,-330 700.825,-366"/>
<text text-anchor="middle" x="617" y="-343.6" font-family="Courier,monospace" font-size="11.00">HelperNotFoundException</text>
</a>
</g>
</g>
<!-- \\InvalidArgumentException -->
<g id="node29" class="node"><title>\\InvalidArgumentException</title>
<ellipse fill="none" stroke="black" cx="325" cy="-18" rx="119.421" ry="18"/>
<text text-anchor="middle" x="325" y="-12.4" font-family="Times,serif" font-size="14.00" fill="gray">\InvalidArgumentException</text>
</g>
<!-- \\Orno\\Mvc\\View\\Exception\\HelperNotFoundException&#45;&gt;\\InvalidArgumentException -->
<g id="edge5" class="edge"><title>\\Orno\\Mvc\\View\\Exception\\HelperNotFoundException&#45;&gt;\\InvalidArgumentException</title>
<path fill="none" stroke="black" d="M532.98,-337.543C523.685,-333.536 515.045,-328.167 508,-321 419.726,-231.201 533.17,-133.91 444,-45 439.614,-40.6273 434.675,-36.9035 429.367,-33.7371"/>
<polygon fill="none" stroke="black" points="430.605,-30.4357 420.12,-28.9186 427.371,-36.6435 430.605,-30.4357"/>
</g>
<!-- \\Orno\\Mvc\\View\\Exception\\LayoutNotProvidedException -->
<g id="node19" class="node"><title>\\Orno\\Mvc\\View\\Exception\\LayoutNotProvidedException</title>
<g id="a_node19"><a xlink:href="mvc.src.Orno.Mvc.View.Exception.LayoutNotProvidedException.html" xlink:title="LayoutNotProvidedException" target="_parent">
<polygon fill="none" stroke="black" points="710.628,-474 523.372,-474 523.372,-438 710.628,-438 710.628,-474"/>
<text text-anchor="middle" x="617" y="-451.6" font-family="Courier,monospace" font-size="11.00">LayoutNotProvidedException</text>
</a>
</g>
</g>
<!-- \\Orno\\Mvc\\View\\Exception\\LayoutNotProvidedException&#45;&gt;\\RuntimeException -->
<g id="edge6" class="edge"><title>\\Orno\\Mvc\\View\\Exception\\LayoutNotProvidedException&#45;&gt;\\RuntimeException</title>
<path fill="none" stroke="black" d="M522.925,-440.753C517.451,-437.502 512.394,-433.622 508,-429 406.565,-322.304 544.372,-211.697 444,-104 435.379,-94.7494 424.38,-88.0713 412.576,-83.2693"/>
<polygon fill="none" stroke="black" points="413.562,-79.9044 402.968,-79.8072 411.189,-86.49 413.562,-79.9044"/>
</g>
<!-- \\Orno\\Mvc\\View\\Exception\\RegionNotProvidedException -->
<g id="node20" class="node"><title>\\Orno\\Mvc\\View\\Exception\\RegionNotProvidedException</title>
<g id="a_node20"><a xlink:href="mvc.src.Orno.Mvc.View.Exception.RegionNotProvidedException.html" xlink:title="RegionNotProvidedException" target="_parent">
<polygon fill="none" stroke="black" points="710.628,-312 523.372,-312 523.372,-276 710.628,-276 710.628,-312"/>
<text text-anchor="middle" x="617" y="-289.6" font-family="Courier,monospace" font-size="11.00">RegionNotProvidedException</text>
</a>
</g>
</g>
<!-- \\Orno\\Mvc\\View\\Exception\\RegionNotProvidedException&#45;&gt;\\InvalidArgumentException -->
<g id="edge7" class="edge"><title>\\Orno\\Mvc\\View\\Exception\\RegionNotProvidedException&#45;&gt;\\InvalidArgumentException</title>
<path fill="none" stroke="black" d="M608.995,-275.826C590.096,-229.349 533.377,-105.573 444,-45 437.456,-40.5649 430.287,-36.8502 422.819,-33.7399"/>
<polygon fill="none" stroke="black" points="423.814,-30.3747 413.223,-30.1149 421.34,-36.923 423.814,-30.3747"/>
</g>
<!-- \\Orno\\Mvc\\View\\Exception\\ViewPathNotProvidedException -->
<g id="node21" class="node"><title>\\Orno\\Mvc\\View\\Exception\\ViewPathNotProvidedException</title>
<g id="a_node21"><a xlink:href="mvc.src.Orno.Mvc.View.Exception.ViewPathNotProvidedException.html" xlink:title="ViewPathNotProvidedException" target="_parent">
<polygon fill="none" stroke="black" points="717.33,-420 516.67,-420 516.67,-384 717.33,-384 717.33,-420"/>
<text text-anchor="middle" x="617" y="-397.6" font-family="Courier,monospace" font-size="11.00">ViewPathNotProvidedException</text>
</a>
</g>
</g>
<!-- \\Orno\\Mvc\\View\\Exception\\ViewPathNotProvidedException&#45;&gt;\\RuntimeException -->
<g id="edge8" class="edge"><title>\\Orno\\Mvc\\View\\Exception\\ViewPathNotProvidedException&#45;&gt;\\RuntimeException</title>
<path fill="none" stroke="black" d="M518.698,-383.801C514.855,-381.221 511.258,-378.301 508,-375 421.064,-286.92 530.058,-192.938 444,-104 435.149,-94.8524 423.969,-88.2345 412.037,-83.4631"/>
<polygon fill="none" stroke="black" points="412.932,-80.0669 402.338,-80.0194 410.59,-86.6635 412.932,-80.0669"/>
</g>
<!-- \\Orno\\Mvc\\View\\AbstractRenderer -->
<g id="node22" class="node"><title>\\Orno\\Mvc\\View\\AbstractRenderer</title>
<g id="a_node22"><a xlink:href="mvc.src.Orno.Mvc.View.AbstractRenderer.html" xlink:title="«abstract»&lt;br/&gt;AbstractRenderer" target="_parent">
<polygon fill="none" stroke="black" points="386,-574 264,-574 264,-538 386,-538 386,-574"/>
<text text-anchor="start" x="292" y="-557.5" font-family="Courier,monospace" font-size="11.00">«abstract»</text>
<text text-anchor="start" x="272.5" y="-546.5" font-family="Courier,monospace" font-size="11.00">AbstractRenderer</text>
</a>
</g>
</g>
<!-- \\Orno\\Mvc\\View\\AbstractRenderer&#45;&gt;\\ArrayAccess -->
<g id="edge16" class="edge"><title>\\Orno\\Mvc\\View\\AbstractRenderer&#45;&gt;\\ArrayAccess</title>
<path fill="none" stroke="black" stroke-dasharray="1,5" d="M302.614,-537.705C256.417,-498.184 147.325,-404.86 95.8317,-360.809"/>
<polygon fill="none" stroke="black" points="97.9545,-358.019 88.0804,-354.178 93.404,-363.338 97.9545,-358.019"/>
</g>
<!-- \\Orno\\Mvc\\View\\JsonRenderer -->
<g id="node23" class="node"><title>\\Orno\\Mvc\\View\\JsonRenderer</title>
<g id="a_node23"><a xlink:href="mvc.src.Orno.Mvc.View.JsonRenderer.html" xlink:title="JsonRenderer" target="_parent">
<polygon fill="none" stroke="black" points="664.713,-601 569.287,-601 569.287,-565 664.713,-565 664.713,-601"/>
<text text-anchor="middle" x="617" y="-578.6" font-family="Courier,monospace" font-size="11.00">JsonRenderer</text>
</a>
</g>
</g>
<!-- \\Orno\\Mvc\\View\\JsonRenderer&#45;&gt;\\Orno\\Mvc\\View\\AbstractRenderer -->
<g id="edge9" class="edge"><title>\\Orno\\Mvc\\View\\JsonRenderer&#45;&gt;\\Orno\\Mvc\\View\\AbstractRenderer</title>
<path fill="none" stroke="black" d="M569.084,-578.632C522.323,-574.278 449.942,-567.539 396.311,-562.546"/>
<polygon fill="none" stroke="black" points="396.469,-559.046 386.188,-561.604 395.82,-566.016 396.469,-559.046"/>
</g>
<!-- \\Orno\\Mvc\\View\\Renderer -->
<g id="node24" class="node"><title>\\Orno\\Mvc\\View\\Renderer</title>
<g id="a_node24"><a xlink:href="mvc.src.Orno.Mvc.View.Renderer.html" xlink:title="Renderer" target="_parent">
<polygon fill="none" stroke="black" points="651.309,-547 582.691,-547 582.691,-511 651.309,-511 651.309,-547"/>
<text text-anchor="middle" x="617" y="-524.6" font-family="Courier,monospace" font-size="11.00">Renderer</text>
</a>
</g>
</g>
<!-- \\Orno\\Mvc\\View\\Renderer&#45;&gt;\\Orno\\Mvc\\View\\AbstractRenderer -->
<g id="edge10" class="edge"><title>\\Orno\\Mvc\\View\\Renderer&#45;&gt;\\Orno\\Mvc\\View\\AbstractRenderer</title>
<path fill="none" stroke="black" d="M582.45,-532.124C537.137,-536.342 455.259,-543.966 396.191,-549.465"/>
<polygon fill="none" stroke="black" points="395.812,-545.985 386.18,-550.397 396.461,-552.955 395.812,-545.985"/>
</g>
<!-- \\Orno\\Mvc\\View\\XmlRenderer -->
<g id="node25" class="node"><title>\\Orno\\Mvc\\View\\XmlRenderer</title>
<g id="a_node25"><a xlink:href="mvc.src.Orno.Mvc.View.XmlRenderer.html" xlink:title="XmlRenderer" target="_parent">
<polygon fill="none" stroke="black" points="661.113,-655 572.887,-655 572.887,-619 661.113,-619 661.113,-655"/>
<text text-anchor="middle" x="617" y="-632.6" font-family="Courier,monospace" font-size="11.00">XmlRenderer</text>
</a>
</g>
</g>
<!-- \\Orno\\Mvc\\View\\XmlRenderer&#45;&gt;\\Orno\\Mvc\\View\\AbstractRenderer -->
<g id="edge11" class="edge"><title>\\Orno\\Mvc\\View\\XmlRenderer&#45;&gt;\\Orno\\Mvc\\View\\AbstractRenderer</title>
<path fill="none" stroke="black" d="M572.794,-626.654C552.995,-621.796 529.254,-615.807 508,-610 470.237,-599.683 428.338,-587.315 394.269,-577.02"/>
<polygon fill="none" stroke="black" points="395.005,-573.586 384.42,-574.036 392.976,-580.286 395.005,-573.586"/>
</g>
</g>
</svg>
